<svg xmlns="http://www.w3.org/2000/svg" viewBox="0 0 32 32" width="32" height="32">
  <defs>
    <linearGradient id="logoGradient" x1="0%" y1="0%" x2="100%" y2="100%">
      <stop offset="0%" style="stop-color:#22c55e;stop-opacity:1" />
      <stop offset="100%" style="stop-color:#16a34a;stop-opacity:1" />
    </linearGradient>
  </defs>
  
  <!-- Background with gradient (matching navbar) -->
  <rect x="2" y="2" width="28" height="28" rx="8" fill="url(#logoGradient)" stroke="#15803d" stroke-width="1"/>
  
  <!-- Leaf icon (matching Lucide React Leaf icon) -->
  <path d="M6 12c0-3.314 2.686-6 6-6s6 2.686 6 6c0 3.314-2.686 6-6 6s-6-2.686-6-6z" fill="none" stroke="white" stroke-width="2" stroke-linecap="round" stroke-linejoin="round"/>
  <path d="M12 6v6M12 12h6M12 12l6-6M12 12l-6 6" fill="none" stroke="white" stroke-width="2" stroke-linecap="round" stroke-linejoin="round"/>
  
  <!-- Leaf details -->
  <path d="M10 10c0-1.105.895-2 2-2s2 .895 2 2-.895 2-2 2-2-.895-2-2z" fill="white" opacity="0.3"/>
</svg>
